<svg id="logo" width="105" x="0" y="0" aria-labelledby="nyi-logo" role="img" viewBox="0 0 874 260"><title id="nyi-logo-svg">NYI Logo</title><polygon points="50 57.5 7 202.5 32 202.5 73 57.5" class="logo-st0"/><polygon points="93 57.5 50 202.5 75 202.5 116 57.5" class="logo-st0"/><polygon points="137 57.5 94 202.5 119 202.5 160 57.5" class="logo-st0"/><polygon points="181 57.5 138 202.5 163 202.5 204 57.5" class="logo-st0"/><polygon points="224 57.5 181 202.5 206 202.5 247 57.5" class="logo-st0"/><polygon points="267 58.5 224 203.5 249 203.5 290 58.5" class="logo-st0"/><polygon points="309 57.5 265 203.5 305 203.5 338 90.5 395 203.5 483 203.5 526 57.5 487 57.5 454 166.5 392 57.5" class="logo-st0"/><polygon points="548 57.5 597 149.5 580 203.5 652 203.5 666 152.5 779 57.5 734 57.5 656 120.5 622 57.5" class="logo-st0"/><polygon points="799 57.5 755 203.5 822 203.5 865 57.5" class="logo-st0"/></svg>